{
	"asset":{
		"generator":"Khronos glTF Blender I/O v4.5.49",
		"version":"2.0"
	},
	"scene":0,
	"scenes":[
		{
			"name":"Scene",
			"nodes":[
				0,
				1
			]
		}
	],
	"nodes":[
		{
			"mesh":0,
			"name":"ceilingExhaust",
			"translation":[
				0,
				2.4982070922851562,
				0
			]
		},
		{
			"mesh":1,
			"name":"exhaustNeon",
			"translation":[
				0,
				2.4982070922851562,
				0
			]
		}
	],
	"meshes":[
		{
			"name":"Cylinder",
			"primitives":[
				{
					"attributes":{
						"POSITION":0,
						"NORMAL":1,
						"TEXCOORD_0":2
					},
					"indices":3
				}
			]
		},
		{
			"name":"Cylinder.002",
			"primitives":[
				{
					"attributes":{
						"POSITION":4,
						"NORMAL":5,
						"TEXCOORD_0":6
					},
					"indices":7
				}
			]
		}
	],
	"accessors":[
		{
			"bufferView":0,
			"componentType":5126,
			"count":465,
			"max":[
				17.87835121154785,
				38.36724853515625,
				17.87835121154785
			],
			"min":[
				-17.87835121154785,
				24.02689552307129,
				-17.87835121154785
			],
			"type":"VEC3"
		},
		{
			"bufferView":1,
			"componentType":5126,
			"count":465,
			"type":"VEC3"
		},
		{
			"bufferView":2,
			"componentType":5126,
			"count":465,
			"type":"VEC2"
		},
		{
			"bufferView":3,
			"componentType":5123,
			"count":2292,
			"type":"SCALAR"
		},
		{
			"bufferView":4,
			"componentType":5126,
			"count":66,
			"max":[
				17.097402572631836,
				32.32415771484375,
				17.097402572631836
			],
			"min":[
				-17.097402572631836,
				30.691078186035156,
				-17.097402572631836
			],
			"type":"VEC3"
		},
		{
			"bufferView":5,
			"componentType":5126,
			"count":66,
			"type":"VEC3"
		},
		{
			"bufferView":6,
			"componentType":5126,
			"count":66,
			"type":"VEC2"
		},
		{
			"bufferView":7,
			"componentType":5123,
			"count":192,
			"type":"SCALAR"
		}
	],
	"bufferViews":[
		{
			"buffer":0,
			"byteLength":5580,
			"byteOffset":0,
			"target":34962
		},
		{
			"buffer":0,
			"byteLength":5580,
			"byteOffset":5580,
			"target":34962
		},
		{
			"buffer":0,
			"byteLength":3720,
			"byteOffset":11160,
			"target":34962
		},
		{
			"buffer":0,
			"byteLength":4584,
			"byteOffset":14880,
			"target":34963
		},
		{
			"buffer":0,
			"byteLength":792,
			"byteOffset":19464,
			"target":34962
		},
		{
			"buffer":0,
			"byteLength":792,
			"byteOffset":20256,
			"target":34962
		},
		{
			"buffer":0,
			"byteLength":528,
			"byteOffset":21048,
			"target":34962
		},
		{
			"buffer":0,
			"byteLength":384,
			"byteOffset":21576,
			"target":34963
		}
	],
	"buffers":[
		{
			"byteLength":21960,
			"uri":"ceilingExhaust.bin"
		}
	]
}
