{
	"asset":{
		"generator":"Khronos glTF Blender I/O v4.5.49",
		"version":"2.0"
	},
	"scene":0,
	"scenes":[
		{
			"name":"Scene",
			"nodes":[
				0,
				1,
				2,
				3,
				4,
				5,
				6,
				7
			]
		}
	],
	"nodes":[
		{
			"mesh":0,
			"name":"exteriorDome",
			"translation":[
				0,
				-3.814697265625e-06,
				0
			]
		},
		{
			"mesh":1,
			"name":"walls"
		},
		{
			"mesh":2,
			"name":"Beams"
		},
		{
			"mesh":3,
			"name":"floor"
		},
		{
			"mesh":4,
			"name":"sideBeams",
			"scale":[
				1,
				1.2992808818817139,
				1
			]
		},
		{
			"mesh":5,
			"name":"windows"
		},
		{
			"mesh":6,
			"name":"centerBeams",
			"rotation":[
				-0.5,
				-0.5,
				-0.5,
				0.4999999701976776
			],
			"scale":[
				1.430437684059143,
				1.8585402965545654,
				1.430437684059143
			],
			"translation":[
				0,
				0,
				3.814697265625e-06
			]
		},
		{
			"mesh":7,
			"name":"ceiling",
			"scale":[
				40,
				40,
				40
			],
			"translation":[
				0,
				8,
				0
			]
		}
	],
	"meshes":[
		{
			"name":"Sphere",
			"primitives":[
				{
					"attributes":{
						"POSITION":0,
						"NORMAL":1,
						"TEXCOORD_0":2
					},
					"indices":3
				}
			]
		},
		{
			"name":"Circle.003",
			"primitives":[
				{
					"attributes":{
						"POSITION":4,
						"NORMAL":5,
						"TEXCOORD_0":6
					},
					"indices":7
				}
			]
		},
		{
			"name":"Circle.004",
			"primitives":[
				{
					"attributes":{
						"POSITION":8,
						"NORMAL":9,
						"TEXCOORD_0":10
					},
					"indices":11
				}
			]
		},
		{
			"name":"Circle.005",
			"primitives":[
				{
					"attributes":{
						"POSITION":12,
						"NORMAL":13,
						"TEXCOORD_0":14
					},
					"indices":15
				}
			]
		},
		{
			"name":"Cube",
			"primitives":[
				{
					"attributes":{
						"POSITION":16,
						"NORMAL":17,
						"TEXCOORD_0":18
					},
					"indices":19
				}
			]
		},
		{
			"name":"Walls_Curve",
			"primitives":[
				{
					"attributes":{
						"POSITION":20,
						"NORMAL":21,
						"TEXCOORD_0":22
					},
					"indices":23
				}
			]
		},
		{
			"name":"Cube.001",
			"primitives":[
				{
					"attributes":{
						"POSITION":24,
						"NORMAL":25,
						"TEXCOORD_0":26
					},
					"indices":19
				}
			]
		},
		{
			"name":"Circle.007",
			"primitives":[
				{
					"attributes":{
						"POSITION":27,
						"NORMAL":28,
						"TEXCOORD_0":29
					},
					"indices":30
				}
			]
		}
	],
	"accessors":[
		{
			"bufferView":0,
			"componentType":5126,
			"count":1026,
			"max":[
				41.473480224609375,
				111.48805236816406,
				41.47346496582031
			],
			"min":[
				-41.473453521728516,
				40.75519943237305,
				-41.47349166870117
			],
			"type":"VEC3"
		},
		{
			"bufferView":1,
			"componentType":5126,
			"count":1026,
			"type":"VEC3"
		},
		{
			"bufferView":2,
			"componentType":5126,
			"count":1026,
			"type":"VEC2"
		},
		{
			"bufferView":3,
			"componentType":5123,
			"count":4968,
			"type":"SCALAR"
		},
		{
			"bufferView":4,
			"componentType":5126,
			"count":854,
			"max":[
				0,
				40.75519561767578,
				78.01319122314453
			],
			"min":[
				-101.5733642578125,
				0,
				-78.01319122314453
			],
			"type":"VEC3"
		},
		{
			"bufferView":5,
			"componentType":5126,
			"count":854,
			"type":"VEC3"
		},
		{
			"bufferView":6,
			"componentType":5126,
			"count":854,
			"type":"VEC2"
		},
		{
			"bufferView":7,
			"componentType":5123,
			"count":3201,
			"type":"SCALAR"
		},
		{
			"bufferView":8,
			"componentType":5126,
			"count":188,
			"max":[
				-24.913232803344727,
				40.75519561767578,
				62.97611618041992
			],
			"min":[
				-74.73097229003906,
				0,
				24.186138153076172
			],
			"type":"VEC3"
		},
		{
			"bufferView":9,
			"componentType":5126,
			"count":188,
			"type":"VEC3"
		},
		{
			"bufferView":10,
			"componentType":5126,
			"count":188,
			"type":"VEC2"
		},
		{
			"bufferView":11,
			"componentType":5123,
			"count":768,
			"type":"SCALAR"
		},
		{
			"bufferView":12,
			"componentType":5126,
			"count":137,
			"max":[
				0,
				0,
				78.01319122314453
			],
			"min":[
				-101.5733642578125,
				-2.1140265464782715,
				0
			],
			"type":"VEC3"
		},
		{
			"bufferView":13,
			"componentType":5126,
			"count":137,
			"type":"VEC3"
		},
		{
			"bufferView":14,
			"componentType":5126,
			"count":137,
			"type":"VEC2"
		},
		{
			"bufferView":15,
			"componentType":5123,
			"count":408,
			"type":"SCALAR"
		},
		{
			"bufferView":16,
			"componentType":5126,
			"count":24,
			"max":[
				-101.10250091552734,
				27.48149871826172,
				11.53376579284668
			],
			"min":[
				-101.75646209716797,
				-1.0256767272949219,
				10.879796981811523
			],
			"type":"VEC3"
		},
		{
			"bufferView":17,
			"componentType":5126,
			"count":24,
			"type":"VEC3"
		},
		{
			"bufferView":18,
			"componentType":5126,
			"count":24,
			"type":"VEC2"
		},
		{
			"bufferView":19,
			"componentType":5123,
			"count":36,
			"type":"SCALAR"
		},
		{
			"bufferView":20,
			"componentType":5126,
			"count":546,
			"max":[
				-48.07056427001953,
				31.0513858795166,
				77.21578979492188
			],
			"min":[
				-72.5885009765625,
				3.322158098220825,
				-77.21578979492188
			],
			"type":"VEC3"
		},
		{
			"bufferView":21,
			"componentType":5126,
			"count":546,
			"type":"VEC3"
		},
		{
			"bufferView":22,
			"componentType":5126,
			"count":546,
			"type":"VEC2"
		},
		{
			"bufferView":23,
			"componentType":5123,
			"count":2880,
			"type":"SCALAR"
		},
		{
			"bufferView":24,
			"componentType":5126,
			"count":24,
			"max":[
				-42.13948059082031,
				14.253585815429688,
				23.565458297729492
			],
			"min":[
				-42.79344177246094,
				-14.253589630126953,
				22.911489486694336
			],
			"type":"VEC3"
		},
		{
			"bufferView":25,
			"componentType":5126,
			"count":24,
			"type":"VEC3"
		},
		{
			"bufferView":26,
			"componentType":5126,
			"count":24,
			"type":"VEC2"
		},
		{
			"bufferView":27,
			"componentType":5126,
			"count":36,
			"max":[
				0,
				0.8188798427581787,
				1.8329519033432007
			],
			"min":[
				-2.423218250274658,
				0.8188798427581787,
				0
			],
			"type":"VEC3"
		},
		{
			"bufferView":28,
			"componentType":5126,
			"count":36,
			"type":"VEC3"
		},
		{
			"bufferView":29,
			"componentType":5126,
			"count":36,
			"type":"VEC2"
		},
		{
			"bufferView":30,
			"componentType":5123,
			"count":105,
			"type":"SCALAR"
		}
	],
	"bufferViews":[
		{
			"buffer":0,
			"byteLength":12312,
			"byteOffset":0,
			"target":34962
		},
		{
			"buffer":0,
			"byteLength":12312,
			"byteOffset":12312,
			"target":34962
		},
		{
			"buffer":0,
			"byteLength":8208,
			"byteOffset":24624,
			"target":34962
		},
		{
			"buffer":0,
			"byteLength":9936,
			"byteOffset":32832,
			"target":34963
		},
		{
			"buffer":0,
			"byteLength":10248,
			"byteOffset":42768,
			"target":34962
		},
		{
			"buffer":0,
			"byteLength":10248,
			"byteOffset":53016,
			"target":34962
		},
		{
			"buffer":0,
			"byteLength":6832,
			"byteOffset":63264,
			"target":34962
		},
		{
			"buffer":0,
			"byteLength":6402,
			"byteOffset":70096,
			"target":34963
		},
		{
			"buffer":0,
			"byteLength":2256,
			"byteOffset":76500,
			"target":34962
		},
		{
			"buffer":0,
			"byteLength":2256,
			"byteOffset":78756,
			"target":34962
		},
		{
			"buffer":0,
			"byteLength":1504,
			"byteOffset":81012,
			"target":34962
		},
		{
			"buffer":0,
			"byteLength":1536,
			"byteOffset":82516,
			"target":34963
		},
		{
			"buffer":0,
			"byteLength":1644,
			"byteOffset":84052,
			"target":34962
		},
		{
			"buffer":0,
			"byteLength":1644,
			"byteOffset":85696,
			"target":34962
		},
		{
			"buffer":0,
			"byteLength":1096,
			"byteOffset":87340,
			"target":34962
		},
		{
			"buffer":0,
			"byteLength":816,
			"byteOffset":88436,
			"target":34963
		},
		{
			"buffer":0,
			"byteLength":288,
			"byteOffset":89252,
			"target":34962
		},
		{
			"buffer":0,
			"byteLength":288,
			"byteOffset":89540,
			"target":34962
		},
		{
			"buffer":0,
			"byteLength":192,
			"byteOffset":89828,
			"target":34962
		},
		{
			"buffer":0,
			"byteLength":72,
			"byteOffset":90020,
			"target":34963
		},
		{
			"buffer":0,
			"byteLength":6552,
			"byteOffset":90092,
			"target":34962
		},
		{
			"buffer":0,
			"byteLength":6552,
			"byteOffset":96644,
			"target":34962
		},
		{
			"buffer":0,
			"byteLength":4368,
			"byteOffset":103196,
			"target":34962
		},
		{
			"buffer":0,
			"byteLength":5760,
			"byteOffset":107564,
			"target":34963
		},
		{
			"buffer":0,
			"byteLength":288,
			"byteOffset":113324,
			"target":34962
		},
		{
			"buffer":0,
			"byteLength":288,
			"byteOffset":113612,
			"target":34962
		},
		{
			"buffer":0,
			"byteLength":192,
			"byteOffset":113900,
			"target":34962
		},
		{
			"buffer":0,
			"byteLength":432,
			"byteOffset":114092,
			"target":34962
		},
		{
			"buffer":0,
			"byteLength":432,
			"byteOffset":114524,
			"target":34962
		},
		{
			"buffer":0,
			"byteLength":288,
			"byteOffset":114956,
			"target":34962
		},
		{
			"buffer":0,
			"byteLength":210,
			"byteOffset":115244,
			"target":34963
		}
	],
	"buffers":[
		{
			"byteLength":115456,
			"uri":"garageStructure.bin"
		}
	]
}
