{
	"asset":{
		"generator":"Khronos glTF Blender I/O v4.5.49",
		"version":"2.0"
	},
	"scene":0,
	"scenes":[
		{
			"name":"Scene",
			"nodes":[
				0
			]
		}
	],
	"nodes":[
		{
			"mesh":0,
			"name":"stationLight",
			"scale":[
				5.6244797706604,
				2.498208522796631,
				5.6244797706604
			]
		}
	],
	"meshes":[
		{
			"name":"Cylinder.003",
			"primitives":[
				{
					"attributes":{
						"POSITION":0,
						"NORMAL":1,
						"TEXCOORD_0":2
					},
					"indices":3
				}
			]
		}
	],
	"accessors":[
		{
			"bufferView":0,
			"componentType":5126,
			"count":1156,
			"max":[
				1.2001746892929077,
				3.5762786865234375e-07,
				1.2001746892929077
			],
			"min":[
				-1.2001746892929077,
				-5.3598246574401855,
				-1.2001746892929077
			],
			"type":"VEC3"
		},
		{
			"bufferView":1,
			"componentType":5126,
			"count":1156,
			"type":"VEC3"
		},
		{
			"bufferView":2,
			"componentType":5126,
			"count":1156,
			"type":"VEC2"
		},
		{
			"bufferView":3,
			"componentType":5123,
			"count":5730,
			"type":"SCALAR"
		}
	],
	"bufferViews":[
		{
			"buffer":0,
			"byteLength":13872,
			"byteOffset":0,
			"target":34962
		},
		{
			"buffer":0,
			"byteLength":13872,
			"byteOffset":13872,
			"target":34962
		},
		{
			"buffer":0,
			"byteLength":9248,
			"byteOffset":27744,
			"target":34962
		},
		{
			"buffer":0,
			"byteLength":11460,
			"byteOffset":36992,
			"target":34963
		}
	],
	"buffers":[
		{
			"byteLength":48452,
			"uri":"stationLight.bin"
		}
	]
}
